# xmcd
#
# Track frame offsets:
# 150
# 21875
# 32332
# 38777
# 51665
# 64802
# 77307
# 90365
# 101955
# 120252
# 138892
# 152415
# 163817
# 183497
# 203880
# 222022
# 235385
# 255370
# 273295
# 284720
# 293462
#
# Disc length: 3997 seconds
#
#
# Revision: 0
# Processed by: cddbd v1.5.1PL2 Copyright (c) Steve Scherf et al.
# Submitted via: FreeRIP 2.945 
#
DISCID=1d0f9b15
DTITLE=Frank Sinatra - The Jerusalem Concert
DYEAR=2000
DGENRE=Oldies
TTITLE0=Orchestral Overture
TTITLE1=Where or When
TTITLE2=At long last love
TTITLE3=They can't take that away from me
TTITLE4=You are the sunshine of my life
TTITLE5=My kind of town
TTITLE6=But beautiful
TTITLE7=Didn't we
TTITLE8=Something
TTITLE9=All by myself
TTITLE10=Nice' n' easy
TTITLE11=Monologue
TTITLE12=My way
TTITLE13=Send in the clowns
TTITLE14=Ol' man river
TTITLE15=I've got you under my skin
TTITLE16=Pennies from heaven
TTITLE17=The lady is a tramp
TTITLE18=Strangers in the night
TTITLE19=Fly me to the moon
TTITLE20=Orchestral Closing
EXTD=
EXTT0=
EXTT1=
EXTT2=
EXTT3=
EXTT4=
EXTT5=
EXTT6=
EXTT7=
EXTT8=
EXTT9=
EXTT10=
EXTT11=
EXTT12=
EXTT13=
EXTT14=
EXTT15=
EXTT16=
EXTT17=
EXTT18=
EXTT19=
EXTT20=
PLAYORDER=
